<svg width="20" height="20" viewBox="0 0 20 20" fill="none" xmlns="http://www.w3.org/2000/svg">
<g clip-path="url(#clip0_92_106)">
<path d="M10.0002 12.6666C11.4729 12.6666 12.6668 11.4727 12.6668 9.99992C12.6668 8.52716 11.4729 7.33325 10.0002 7.33325C8.5274 7.33325 7.3335 8.52716 7.3335 9.99992C7.3335 11.4727 8.5274 12.6666 10.0002 12.6666Z" fill="black"/>
<path d="M7.49984 1.66675L5.97484 3.33341H3.33317C2.4165 3.33341 1.6665 4.08341 1.6665 5.00008V15.0001C1.6665 15.9167 2.4165 16.6667 3.33317 16.6667H16.6665C17.5832 16.6667 18.3332 15.9167 18.3332 15.0001V5.00008C18.3332 4.08341 17.5832 3.33341 16.6665 3.33341H14.0248L12.4998 1.66675H7.49984ZM9.99984 14.1667C7.69984 14.1667 5.83317 12.3001 5.83317 10.0001C5.83317 7.70008 7.69984 5.83341 9.99984 5.83341C12.2998 5.83341 14.1665 7.70008 14.1665 10.0001C14.1665 12.3001 12.2998 14.1667 9.99984 14.1667Z" fill="black"/>
</g>
<defs>
<clipPath id="clip0_92_106">
<rect width="20" height="20" fill="white"/>
</clipPath>
</defs>
</svg>
