<svg width="24" height="25" viewBox="0 0 24 25" fill="none" xmlns="http://www.w3.org/2000/svg">
<path d="M24 12.6099C24 11.5603 23.9166 10.7943 23.7361 10H12V14.7375H18.8888C18.75 15.9149 18 17.6879 16.3333 18.8794L16.3099 19.038L20.0207 21.9738L20.2778 22C22.6388 19.773 24 16.4964 24 12.6099" fill="#4285F4"/>
<path d="M11.9114 25C15.2093 25 17.9778 23.8919 20 21.9806L16.1457 18.9334C15.1143 19.6675 13.73 20.18 11.9114 20.18C8.68147 20.18 5.94007 18.0055 4.96283 15L4.81959 15.0124L1.04931 17.9903L1 18.1301C3.00855 22.2021 7.13427 25 11.9114 25Z" fill="#34A853"/>
<path d="M5 14.9399C4.75516 14.1816 4.61346 13.3692 4.61346 12.5297C4.61346 11.6901 4.75516 10.8777 4.98712 10.1195L4.98063 9.95798L1.3557 7L1.2371 7.05928C0.45104 8.71124 0 10.5663 0 12.5297C0 14.4931 0.45104 16.348 1.2371 18L5 14.9399" fill="#FBBC05"/>
<path d="M11.8649 4.81992C14.1487 4.81992 15.6892 5.83099 16.5676 6.67593L20 3.241C17.892 1.23269 15.1486 0 11.8649 0C7.1081 0 2.99998 2.79777 1 6.86976L4.93242 10C5.91899 6.99446 8.64871 4.81992 11.8649 4.81992" fill="#EA4335"/>
</svg>
