<svg width="31" height="30" viewBox="0 0 31 30" fill="none" xmlns="http://www.w3.org/2000/svg">
<path d="M13.6025 1.69757C14.21 -0.126486 16.79 -0.126491 17.3975 1.69756L19.6469 8.45162C19.919 9.26856 20.6834 9.81966 21.5445 9.81966H28.7166C30.666 9.81966 31.4635 12.324 29.8731 13.4513L24.1564 17.5035C23.4381 18.0126 23.1372 18.9317 23.4155 19.7671L25.619 26.3834C26.2298 28.2174 24.1419 29.7649 22.5649 28.6471L16.6566 24.4591C15.9637 23.968 15.0363 23.968 14.3434 24.4591L8.43512 28.6471C6.8581 29.7649 4.77023 28.2174 5.38102 26.3834L7.58454 19.7671C7.86276 18.9317 7.56192 18.0126 6.84358 17.5035L1.12688 13.4513C-0.463504 12.324 0.334055 9.81966 2.28344 9.81966H9.45555C10.3166 9.81966 11.081 9.26856 11.3531 8.45162L13.6025 1.69757Z" fill="#06906F"/>
</svg>
