<svg width="24" height="23" viewBox="0 0 24 23" fill="none" xmlns="http://www.w3.org/2000/svg">
<path d="M8.23606 0C3.70134 0 0 3.54917 0 7.89744C0 12.2457 3.70134 15.7949 8.23606 15.7949C10.2927 15.7949 12.1717 15.0593 13.618 13.8558L14.119 14.3361V15.7949L21.1784 22.5641L23.5316 20.3077L16.4721 13.5385H14.9508L14.4499 13.0581C15.705 11.6713 16.4721 9.86954 16.4721 7.89744C16.4721 3.54917 12.7708 0 8.23606 0ZM8.23606 2.25641C11.499 2.25641 14.119 4.76862 14.119 7.89744C14.119 11.0263 11.499 13.5385 8.23606 13.5385C4.97309 13.5385 2.35316 11.0263 2.35316 7.89744C2.35316 4.76862 4.97309 2.25641 8.23606 2.25641Z" fill="#06906F"/>
</svg>
