<svg width="25" height="27" viewBox="0 0 25 27" fill="none" xmlns="http://www.w3.org/2000/svg">
<path d="M22.2208 0.516174C20.8204 0.516174 19.6751 1.48328 19.4851 2.74406C12.8629 0.845294 10.1163 7.87327 8.06452 9.34672C6.2027 10.6834 0.807232 10.41 0.161296 13.4784C-0.685478 15.6962 1.83313 18.6431 6.97891 21.6609C7.20146 23.6103 8.94929 25.1445 11.1042 25.1445C11.8316 25.1445 12.5101 24.9622 13.1017 24.6584C15.946 25.747 18.7089 26.4407 20.397 26.4407C21.792 26.4407 23.1762 25.8533 23.6104 25.1445C25.9011 22.8609 23.2793 18.7899 23.3499 16.5975C23.4204 14.4557 26.7207 8.9619 23.7407 5.29601C24.506 4.83524 25 4.0251 25 3.10863C25 1.67569 23.757 0.516174 22.2208 0.516174ZM3.41812 14.4506C4.58515 14.2177 8.02109 15.438 11.9293 17.4481C11.6579 17.3975 11.3919 17.3671 11.1042 17.3671C9.6875 17.3671 8.4282 18.0203 7.6737 19.0279C5.0791 17.3722 3.27699 15.8734 3.0273 15.0582C3.01644 15.038 2.99473 14.9975 2.98388 14.9772C2.99473 14.9772 3.01644 14.9772 3.0273 14.9772C3.00559 14.8607 2.97845 14.7747 3.0273 14.6936C3.09244 14.5873 3.23899 14.4861 3.41812 14.4506ZM14.2308 18.7038C18.3941 21.1039 21.2601 23.4887 20.7878 24.2533C20.4133 24.8609 18.0195 24.2381 14.8821 22.8761C15.1264 22.3799 15.273 21.8381 15.273 21.2558C15.273 20.2735 14.8713 19.3874 14.2308 18.7038Z" fill="#212121"/>
</svg>
