<svg width="83" height="27" viewBox="0 0 83 27" fill="none" xmlns="http://www.w3.org/2000/svg">
<path d="M82.8077 1.8L81.4577 7.876C81.4275 8.01749 81.3496 8.14433 81.2372 8.23533C81.1247 8.32633 80.9844 8.37599 80.8397 8.376H78.9197C78.8329 8.37606 78.747 8.35828 78.6674 8.32375C78.5878 8.28923 78.5161 8.23869 78.4569 8.1753C78.3976 8.1119 78.352 8.03699 78.3229 7.95523C78.2938 7.87346 78.2818 7.78659 78.2877 7.7V7.587C78.3797 5.606 77.1297 4.125 74.2977 4.126C69.5917 4.126 66.1677 7.989 65.7197 13.062C65.2567 18.301 68.9197 21.345 73.9877 21.344C75.957 21.3497 77.9159 21.0574 79.7977 20.477C79.9025 20.4439 80.014 20.4386 80.1214 20.4615C80.2288 20.4845 80.3285 20.5349 80.4106 20.6078C80.4927 20.6808 80.5545 20.7738 80.5899 20.8777C80.6253 20.9817 80.6332 21.0931 80.6127 21.201L80.0127 24.34C79.9882 24.471 79.9288 24.593 79.8408 24.6931C79.7528 24.7932 79.6395 24.8678 79.5127 24.909C78.4737 25.24 75.5577 26.017 71.0927 26.018C60.4857 26.018 56.1817 19.918 56.8477 13.699C57.4457 8.161 61.1097 3.66602e-06 75.5597 3.66602e-06C77.8326 -0.00122949 80.0949 0.308646 82.2837 0.921003C82.4677 0.971369 82.6251 1.09105 82.7228 1.25493C82.8205 1.41882 82.8509 1.61417 82.8077 1.8ZM22.4997 0.934003L22.1487 2.519C22.1123 2.68947 22.1409 2.86737 22.2287 3.01792C22.3166 3.16846 22.4574 3.28082 22.6237 3.333C23.2347 3.568 23.3697 4.155 22.8377 4.594L13.9627 11.97L15.4867 5.02C15.7467 3.953 16.5937 3.514 17.1297 3.34L17.2167 3.313C17.3325 3.2774 17.4367 3.21171 17.5188 3.12263C17.6008 3.03355 17.6577 2.92429 17.6837 2.806L18.0477 1.16C18.0678 1.06838 18.067 0.973414 18.0455 0.882126C18.0239 0.790838 17.9821 0.705562 17.9232 0.6326C17.8642 0.559637 17.7896 0.500854 17.7049 0.460594C17.6202 0.420334 17.5275 0.399627 17.4337 0.400003H5.99173C5.83483 0.399934 5.68261 0.453417 5.56023 0.551609C5.43786 0.6498 5.35266 0.786817 5.31873 0.940003L4.94873 2.608C4.91321 2.77238 4.93959 2.94409 5.02281 3.09023C5.10603 3.23637 5.24024 3.34667 5.39973 3.4L5.51273 3.439C6.23073 3.72 7.06273 4.353 6.71273 6.017L3.97873 18.506C3.26473 21.917 2.10873 22.613 1.00573 22.741H0.970733C0.826849 22.757 0.691606 22.8178 0.583993 22.9146C0.476381 23.0115 0.401804 23.1396 0.370733 23.281L0.0167334 24.881C-0.00399782 24.9774 -0.00290774 25.0772 0.0199238 25.1731C0.0427553 25.269 0.08675 25.3586 0.148686 25.4353C0.210621 25.512 0.288929 25.5738 0.377874 25.6164C0.466819 25.6589 0.564148 25.681 0.662733 25.681H12.6927C12.8356 25.6808 12.9741 25.632 13.0855 25.5425C13.197 25.4531 13.2746 25.3284 13.3057 25.189L13.7207 23.317C13.7535 23.1693 13.7325 23.0148 13.6613 22.8813C13.5902 22.7478 13.4736 22.6441 13.3327 22.589L13.2547 22.558C12.6457 22.311 11.8147 21.785 12.0267 20.793L13.4267 14.407C18.2157 23.169 19.7997 25.69 25.5517 25.689H30.7427C30.885 25.689 31.023 25.6406 31.1341 25.5517C31.2451 25.4629 31.3226 25.3388 31.3537 25.2L31.7167 23.578C31.739 23.4807 31.7393 23.3796 31.7178 23.2821C31.6962 23.1847 31.6532 23.0932 31.592 23.0143C31.5307 22.9355 31.4527 22.8712 31.3636 22.8262C31.2745 22.7812 31.1765 22.7565 31.0767 22.754C29.7767 22.734 29.1407 22.433 27.8487 20.772L21.1827 11.751L29.8447 4.551C31.0067 3.642 32.4247 3.386 33.2097 3.282L33.2877 3.274C33.4215 3.26148 33.548 3.20695 33.6489 3.11822C33.7498 3.02949 33.8201 2.9111 33.8497 2.78L34.2037 1.18C34.2256 1.08667 34.2261 0.98959 34.2051 0.896046C34.1841 0.802502 34.1422 0.714923 34.0826 0.639876C34.0229 0.564829 33.9471 0.504263 33.8607 0.46272C33.7743 0.421177 33.6796 0.399735 33.5837 0.400003H23.1637C23.0087 0.399852 22.8583 0.452741 22.7375 0.549883C22.6167 0.647025 22.5328 0.782572 22.4997 0.934003V0.934003ZM54.5477 7.871H56.5737C56.7173 7.8712 56.8567 7.82232 56.9687 7.73248C57.0807 7.64264 57.1587 7.51722 57.1897 7.377L58.5677 1.166C58.5875 1.07377 58.5865 0.978263 58.5647 0.886482C58.5428 0.794701 58.5007 0.708961 58.4415 0.635535C58.3823 0.562109 58.3074 0.502853 58.2223 0.462101C58.1372 0.42135 58.0441 0.400133 57.9497 0.400003H36.6397C36.4826 0.39994 36.3301 0.453529 36.2075 0.551906C36.085 0.650282 35.9997 0.787551 35.9657 0.941003L35.5997 2.6C35.5648 2.75703 35.5886 2.9214 35.6665 3.06213C35.7444 3.20285 35.8711 3.31022 36.0227 3.364L36.0937 3.39C36.7937 3.658 37.7717 4.337 37.3467 6.005L33.1687 24.922C33.1484 25.014 33.1489 25.1094 33.1704 25.2011C33.1918 25.2929 33.2336 25.3787 33.2926 25.4521C33.3517 25.5255 33.4264 25.5848 33.5114 25.6254C33.5964 25.6661 33.6895 25.6871 33.7837 25.687H43.3677C43.511 25.687 43.65 25.6382 43.7618 25.5485C43.8736 25.4589 43.9516 25.3339 43.9827 25.194L44.3997 23.306C44.4297 23.171 44.4122 23.0298 44.35 22.9062C44.2879 22.7827 44.185 22.6844 44.0587 22.628L43.9657 22.585C43.3577 22.285 42.4527 21.602 42.7557 20.277C42.7897 20.1 43.6997 16 43.6997 16H51.8497C51.9935 16 52.1331 15.951 52.2452 15.861C52.3574 15.771 52.4355 15.6454 52.4667 15.505L53.2337 12.05C53.2542 11.9575 53.2537 11.8615 53.2322 11.7693C53.2107 11.677 53.1687 11.5907 53.1094 11.5168C53.0501 11.4429 52.9749 11.3832 52.8895 11.3423C52.804 11.3013 52.7105 11.28 52.6157 11.28H44.7407L46.2097 4.58L51.7097 4.574C53.4867 4.574 54.0287 5.502 53.9257 7.084C53.9257 7.084 53.9257 7.105 53.9177 7.169C53.9085 7.25739 53.9179 7.34674 53.9453 7.43127C53.9727 7.51581 54.0176 7.59365 54.0769 7.6598C54.1363 7.72594 54.2089 7.77891 54.29 7.81528C54.371 7.85166 54.4588 7.87064 54.5477 7.871V7.871Z" fill="#E4002B"/>
</svg>
