<svg width="31" height="31" viewBox="0 0 31 31" fill="none" xmlns="http://www.w3.org/2000/svg">
<path d="M13.7013 3.82482C12.8998 3.82476 12.1063 3.99344 11.3677 4.32093C10.6291 4.64842 9.9603 5.12808 9.40076 5.73165C8.84121 6.33522 8.40223 7.05048 8.10968 7.83526C7.81714 8.62004 7.67696 9.45847 7.6974 10.3011C7.70542 10.6575 7.59851 11.0063 7.39406 11.2907C7.18961 11.575 6.89965 11.7783 6.57137 11.8673C5.51296 12.1589 4.59154 12.8453 3.97897 13.7986C3.3664 14.752 3.10452 15.9071 3.24217 17.0485C3.37983 18.1899 3.90762 19.2397 4.72709 20.0021C5.54657 20.7644 6.60178 21.1873 7.69589 21.1918H9.19726C9.59544 21.1918 9.97732 21.3581 10.2589 21.6542C10.5404 21.9503 10.6986 22.3519 10.6986 22.7706C10.6986 23.1893 10.5404 23.5909 10.2589 23.887C9.97732 24.1831 9.59544 24.3494 9.19726 24.3494H7.69589C5.96678 24.3498 4.29056 23.7224 2.95047 22.5734C1.61038 21.4243 0.688593 19.824 0.34087 18.0428C-0.00685417 16.2617 0.240808 14.4089 1.04201 12.7975C1.8432 11.1862 3.14881 9.91514 4.73821 9.19911C4.92754 7.2036 5.71421 5.32275 6.98495 3.82742C8.25569 2.33208 9.94492 1.29941 11.8094 0.878098C13.6739 0.45679 15.6174 0.668586 17.3601 1.48299C19.1028 2.29739 20.5548 3.67238 21.5069 5.40995C23.8636 5.50014 26.0927 6.55857 27.7155 8.35794C29.3383 10.1573 30.2254 12.5541 30.1863 15.0337C30.1471 17.5133 29.1849 19.8778 27.5063 21.6196C25.8276 23.3614 23.5664 24.3415 21.2082 24.3494C20.81 24.3494 20.4281 24.1831 20.1465 23.887C19.865 23.5909 19.7068 23.1893 19.7068 22.7706C19.7068 22.3519 19.865 21.9503 20.1465 21.6542C20.4281 21.3581 20.81 21.1918 21.2082 21.1918C22.0168 21.1905 22.8169 21.0176 23.5604 20.6833C24.304 20.3489 24.9757 19.8601 25.5352 19.2462C26.0947 18.6323 26.5306 17.9058 26.8166 17.1104C27.1027 16.315 27.233 15.4671 27.1998 14.6174C27.1666 13.7677 26.9706 12.9339 26.6235 12.1658C26.2764 11.3978 25.7854 10.7114 25.1799 10.1477C24.5744 9.58409 23.8668 9.15486 23.0997 8.88578C22.3326 8.61669 21.5217 8.5133 20.7157 8.58179C20.4029 8.60854 20.09 8.53155 19.821 8.36163C19.552 8.19172 19.3403 7.93743 19.2159 7.6345C18.7505 6.50286 17.9804 5.53915 17.0005 4.86219C16.0206 4.18524 14.8738 3.82463 13.7013 3.82482ZM14.1412 12.1815C14.4228 11.8855 14.8046 11.7192 15.2027 11.7192C15.6008 11.7192 15.9826 11.8855 16.2642 12.1815L19.2669 15.3391C19.5404 15.6369 19.6917 16.0357 19.6883 16.4497C19.6849 16.8636 19.527 17.2596 19.2486 17.5523C18.9702 17.8451 18.5937 18.0111 18.2 18.0147C17.8064 18.0183 17.4271 17.8592 17.144 17.5716L16.7041 17.109V29.0858C16.7041 29.5046 16.5459 29.9062 16.2643 30.2022C15.9828 30.4983 15.6009 30.6647 15.2027 30.6647C14.8045 30.6647 14.4226 30.4983 14.1411 30.2022C13.8595 29.9062 13.7013 29.5046 13.7013 29.0858V17.109L13.2614 17.5716C12.9783 17.8592 12.599 18.0183 12.2054 18.0147C11.8117 18.0111 11.4352 17.8451 11.1568 17.5523C10.8784 17.2596 10.7205 16.8636 10.7171 16.4497C10.7137 16.0357 10.865 15.6369 11.1385 15.3391L14.1412 12.1815Z" fill="#212121"/>
</svg>
